<svg xmlns="http://www.w3.org/2000/svg" width="920" height="920" viewBox="0 0 920 920">
<style>
        @import url('https://fonts.googleapis.com/css2?family=Inter:wght@400;500;600;700&amp;display=swap');
        
        .chart-bg { fill: #FAFBFC; }
        .outer-ring { fill: none; stroke: #E1E4E8; stroke-width: 2; }
        .center-circle { fill: #F6F8FA; stroke: #E1E4E8; stroke-width: 1; }
        
        /* Zodiac band */
        .zodiac-band   { fill: #6B46C1; }
        .zodiac-cutout { fill: #FFFFFF; }
        .zodiac-divider { stroke: #FFFFFF; stroke-width: 1; }
        .sign-text { 
            font: 600 12px 'Inter', -apple-system, BlinkMacSystemFont, 'Segoe UI', Roboto, sans-serif; 
            fill: #FFFFFF; 
            text-anchor: middle; 
            dominant-baseline: middle; 
            letter-spacing: 0.5px; 
            text-transform: uppercase;
            text-shadow: 0 1px 2px rgba(0,0,0,0.5);
        }
        
        /* Planet rings */
        .planet-ring { fill: #F8F9FA; stroke: #D0D7DE; stroke-width: 1; }
        .planet-ring-divider { stroke: #E1E4E8; stroke-width: 0.5; opacity: 0.5; }
        
        /* Houses */
        .house-circle { fill: none; stroke: #D0D7DE; stroke-width: 1.5; }
        .house-line { stroke: #D0D7DE; stroke-width: 1; opacity: 0.7; }
        .house-num { 
            font: 700 12px 'Inter', -apple-system, BlinkMacSystemFont, 'Segoe UI', Roboto, sans-serif; 
            fill: #2C3E50; 
            text-anchor: middle; 
            dominant-baseline: middle;
        }
        
        /* Angles */
        .angle-tick { stroke: #4A5568; stroke-width: 1.5; stroke-linecap: round; }
        .angle-marker { fill: #FFD700; stroke: #2C3E50; stroke-width: 1.5; }
        .angle-text-bg { fill: #2C3E50; rx: 3; }
        .angle-text { 
            font: 700 10px 'Inter', -apple-system, BlinkMacSystemFont, 'Segoe UI', Roboto, sans-serif; 
            fill: #FFFFFF; 
            text-anchor: middle; 
            dominant-baseline: middle;
            text-transform: uppercase;
            letter-spacing: 0.5px;
        }
        
        /* Planets */
        .planet-inner { filter: url(#planet-shadow); }
        .planet-outer { filter: url(#planet-shadow); opacity: 0.9; }
        .planet-glyph { 
            font: 600 14px serif; 
            text-anchor: middle; 
            dominant-baseline: middle;
            fill: #FFFFFF;
        }
        .planet-degree { 
            font: 400 8px 'Inter', -apple-system, BlinkMacSystemFont, 'Segoe UI', Roboto, sans-serif; 
            text-anchor: middle; 
            dominant-baseline: middle;
            fill: #586069;
        }
        
        /* Aspects */
        .aspect { fill: none; stroke-linecap: round; }
        
        /* Labels */
        .chart-label {
            font: 600 11px 'Inter', -apple-system, BlinkMacSystemFont, 'Segoe UI', Roboto, sans-serif;
            fill: #586069;
            text-anchor: middle;
            text-transform: uppercase;
            letter-spacing: 0.5px;
        }
        </style>
<defs>

            <filter id="planet-shadow" x="-50%" y="-50%" width="200%" height="200%">
                <feDropShadow dx="0" dy="2" stdDeviation="3" flood-opacity="0.15"/>
            </filter>
        

            <filter id="angle-glow">
                <feGaussianBlur stdDeviation="3" result="coloredBlur"/>
                <feMerge>
                    <feMergeNode in="coloredBlur"/>
                    <feMergeNode in="SourceGraphic"/>
                </feMerge>
            </filter>
        

            <radialGradient id="center-gradient">
                <stop offset="0%" style="stop-color:#FFFFFF;stop-opacity:1" />
                <stop offset="100%" style="stop-color:#F6F8FA;stop-opacity:1" />
            </radialGradient>
        
</defs>
<rect class="chart-bg" width="920" height="920"/>
<circle class="outer-ring" cx="460" cy="460" r="441.59999999999997"/>
<circle class="zodiac-band" cx="460" cy="460" r="404.8"/>
<circle class="zodiac-cutout" cx="460" cy="460" r="340.4"/>
<circle cx="460" cy="460" r="340.4" fill="none" stroke="#FFFFFF" stroke-width="2"/>
<line class="zodiac-divider" x1="141.5" y1="580.1" x2="81.2" y2="602.9"/>
<line class="zodiac-divider" x1="124.1" y1="404.8" x2="60.6" y2="394.3"/>
<line class="zodiac-divider" x1="196.7" y1="244.2" x2="146.9" y2="203.4"/>
<line class="zodiac-divider" x1="339.9" y1="141.5" x2="317.1" y2="81.2"/>
<line class="zodiac-divider" x1="515.2" y1="124.1" x2="525.7" y2="60.6"/>
<line class="zodiac-divider" x1="675.8" y1="196.7" x2="716.6" y2="146.9"/>
<line class="zodiac-divider" x1="778.5" y1="339.9" x2="838.8" y2="317.1"/>
<line class="zodiac-divider" x1="795.9" y1="515.2" x2="859.4" y2="525.7"/>
<line class="zodiac-divider" x1="723.3" y1="675.8" x2="773.1" y2="716.6"/>
<line class="zodiac-divider" x1="580.1" y1="778.5" x2="602.9" y2="838.8"/>
<line class="zodiac-divider" x1="404.8" y1="795.9" x2="394.3" y2="859.4"/>
<line class="zodiac-divider" x1="244.2" y1="723.3" x2="203.4" y2="773.1"/>
<text class="sign-text" x="89.2" y="496.8">ARIES</text>
<text class="sign-text" x="120.5" y="306.5">TAURUS</text>
<text class="sign-text" x="242.8" y="157.3">GEMINI</text>
<text class="sign-text" x="423.2" y="89.2">CANCER</text>
<text class="sign-text" x="613.5" y="120.5">LEO</text>
<text class="sign-text" x="762.7" y="242.8">VIRGO</text>
<text class="sign-text" x="830.8" y="423.2">LIBRA</text>
<text class="sign-text" x="799.5" y="613.5">SCORPIO</text>
<text class="sign-text" x="677.2" y="762.7">SAGITTARIUS</text>
<text class="sign-text" x="496.8" y="830.8">CAPRICORN</text>
<text class="sign-text" x="306.5" y="799.5">AQUARIUS</text>
<text class="sign-text" x="157.3" y="677.2">PISCES</text>
<circle cx="460" cy="460" r="326.59999999999997" fill="#F8F9FA" stroke="#D0D7DE" stroke-width="1"/>
<circle cx="460" cy="460" r="294.40000000000003" fill="#FFFFFF" stroke="#D0D7DE" stroke-width="1"/>
<circle cx="460" cy="460" r="285.2" fill="#F0F1F3" stroke="#D0D7DE" stroke-width="1"/>
<circle cx="460" cy="460" r="257.6" fill="#FFFFFF" stroke="#D0D7DE" stroke-width="1"/>
<circle class="house-circle" cx="460" cy="460" r="248.4"/>
<circle class="house-circle" cx="460" cy="460" r="184.0"/>
<line class="house-line" x1="287.8" y1="524.9" x2="227.6" y2="547.7"/>
<text class="house-num" x="322.3" y="511.9">1</text>
<line class="house-line" x1="278.4" y1="430.2" x2="214.9" y2="419.7"/>
<text class="house-num" x="314.7" y="436.1">2</text>
<line class="house-line" x1="317.7" y1="343.4" x2="267.9" y2="302.6"/>
<text class="house-num" x="346.1" y="366.7">3</text>
<line class="house-line" x1="395.1" y1="287.8" x2="372.3" y2="227.6"/>
<text class="house-num" x="408.1" y="322.3">4</text>
<line class="house-line" x1="489.8" y1="278.4" x2="500.3" y2="214.9"/>
<text class="house-num" x="483.9" y="314.7">5</text>
<line class="house-line" x1="576.6" y1="317.7" x2="617.4" y2="267.9"/>
<text class="house-num" x="553.3" y="346.1">6</text>
<line class="house-line" x1="632.2" y1="395.1" x2="692.4" y2="372.3"/>
<text class="house-num" x="597.7" y="408.1">7</text>
<line class="house-line" x1="641.6" y1="489.8" x2="705.1" y2="500.3"/>
<text class="house-num" x="605.3" y="483.9">8</text>
<line class="house-line" x1="602.3" y1="576.6" x2="652.1" y2="617.4"/>
<text class="house-num" x="573.9" y="553.3">9</text>
<line class="house-line" x1="524.9" y1="632.2" x2="547.7" y2="692.4"/>
<text class="house-num" x="511.9" y="597.7">10</text>
<line class="house-line" x1="430.2" y1="641.6" x2="419.7" y2="705.1"/>
<text class="house-num" x="436.1" y="605.3">11</text>
<line class="house-line" x1="343.4" y1="602.3" x2="302.6" y2="652.1"/>
<text class="house-num" x="366.7" y="573.9">12</text>
<circle class="center-circle" cx="460" cy="460" r="110.39999999999999"/>
<line class="angle-tick" x1="211.6" y1="460.0" x2="121.6" y2="460.0"/>
<circle class="angle-marker" cx="131.6" cy="460.0" r="4"/>
<rect class="angle-text-bg" x="129.6" y="454.0" width="28" height="12"/>
<text class="angle-text" x="143.6" y="460.0">ASC</text>
<line class="angle-tick" x1="708.4" y1="460.0" x2="798.4" y2="460.0"/>
<circle class="angle-marker" cx="788.4" cy="460.0" r="4"/>
<rect class="angle-text-bg" x="762.4" y="454.0" width="28" height="12"/>
<text class="angle-text" x="776.4" y="460.0">DS</text>
<line class="angle-tick" x1="501.2" y1="705.0" x2="516.2" y2="793.7"/>
<circle class="angle-marker" cx="514.5" cy="783.8" r="4"/>
<rect class="angle-text-bg" x="498.5" y="766.0" width="28" height="12"/>
<text class="angle-text" x="512.5" y="772.0">MC</text>
<line class="angle-tick" x1="418.8" y1="215.0" x2="403.8" y2="126.3"/>
<circle class="angle-marker" cx="405.5" cy="136.2" r="4"/>
<rect class="angle-text-bg" x="393.5" y="142.0" width="28" height="12"/>
<text class="angle-text" x="407.5" y="148.0">IC</text>
<text class="chart-label" x="460" y="737.4">Person A</text>
<text class="chart-label" x="460" y="776.5">Person B</text>
<circle class="planet-inner" cx="387.3" cy="198.5" r="9" fill="#6C5CE7"/>
<text class="planet-glyph" x="387.3" y="199.5">♃</text>
<text class="planet-degree" x="391.3" y="213.0">5°07′℞</text>
<circle class="planet-inner" cx="703.0" cy="580.8" r="9" fill="#2C2E3E"/>
<text class="planet-glyph" x="703.0" y="581.8">♇</text>
<text class="planet-degree" x="689.6" y="574.1">17°06′</text>
<circle class="planet-inner" cx="636.3" cy="666.3" r="9" fill="#C44569"/>
<text class="planet-glyph" x="636.3" y="667.3">♂</text>
<text class="planet-degree" x="626.6" y="654.9">10°09′</text>
<circle class="planet-inner" cx="529.6" cy="722.3" r="9" fill="#00BFA5"/>
<text class="planet-glyph" x="529.6" y="723.3">♅</text>
<text class="planet-degree" x="525.8" y="707.8">5°48′</text>
<circle class="planet-inner" cx="506.8" cy="735.5" r="9" fill="#FF6B35"/>
<text class="planet-glyph" x="506.8" y="736.5">☉</text>
<text class="planet-degree" x="504.3" y="720.7">11°02′</text>
<circle class="planet-inner" cx="498.3" cy="712.5" r="9" fill="#3F51B5"/>
<text class="planet-glyph" x="498.3" y="713.5">♆</text>
<text class="planet-degree" x="496.0" y="697.7">12°03′</text>
<circle class="planet-inner" cx="485.7" cy="754.3" r="9" fill="#4A4E69"/>
<text class="planet-glyph" x="485.7" y="755.3">♄</text>
<text class="planet-degree" x="484.4" y="739.3">15°41′</text>
<circle class="planet-inner" cx="437.3" cy="722.4" r="9" fill="#4ECDC4"/>
<text class="planet-glyph" x="437.3" y="723.4">☿</text>
<text class="planet-degree" x="438.6" y="707.5">25°36′℞</text>
<circle class="planet-inner" cx="387.3" cy="721.5" r="9" fill="#FF6B9D"/>
<text class="planet-glyph" x="387.3" y="722.5">♀</text>
<text class="planet-degree" x="391.4" y="707.0">6°12′℞</text>
<circle class="planet-inner" cx="340.1" cy="703.5" r="9" fill="#546E7A"/>
<text class="planet-glyph" x="340.1" y="704.5">☊</text>
<text class="planet-degree" x="346.8" y="690.0">16°52′</text>
<circle class="planet-inner" cx="266.7" cy="650.5" r="9" fill="#C0C5CE"/>
<text class="planet-glyph" x="266.7" y="651.5">☽</text>
<text class="planet-degree" x="277.4" y="640.0">6°05′</text>
<circle class="planet-outer" cx="376.8" cy="160.9" r="8" fill="#6C5CE7"/>
<text class="planet-glyph" x="376.8" y="161.9" style="font-size:12px">♃</text>
<text class="planet-degree" x="372.8" y="146.4">5°07′℞</text>
<circle class="planet-outer" cx="738.0" cy="598.2" r="8" fill="#2C2E3E"/>
<text class="planet-glyph" x="738.0" y="599.2" style="font-size:12px">♇</text>
<text class="planet-degree" x="751.5" y="604.9">17°06′</text>
<circle class="planet-outer" cx="661.7" cy="696.0" r="8" fill="#C44569"/>
<text class="planet-glyph" x="661.7" y="697.0" style="font-size:12px">♂</text>
<text class="planet-degree" x="671.5" y="707.4">10°09′</text>
<circle class="planet-outer" cx="539.7" cy="760.1" r="8" fill="#00BFA5"/>
<text class="planet-glyph" x="539.7" y="761.1" style="font-size:12px">♅</text>
<text class="planet-degree" x="543.5" y="774.6">5°48′</text>
<circle class="planet-outer" cx="513.3" cy="774.0" r="8" fill="#FF6B35"/>
<text class="planet-glyph" x="513.3" y="775.0" style="font-size:12px">☉</text>
<text class="planet-degree" x="515.8" y="788.8">11°02′</text>
<circle class="planet-outer" cx="504.1" cy="751.2" r="8" fill="#3F51B5"/>
<text class="planet-glyph" x="504.1" y="752.2" style="font-size:12px">♆</text>
<text class="planet-degree" x="506.4" y="766.0">12°03′</text>
<circle class="planet-outer" cx="489.1" cy="793.2" r="8" fill="#4A4E69"/>
<text class="planet-glyph" x="489.1" y="794.2" style="font-size:12px">♄</text>
<text class="planet-degree" x="490.4" y="808.2">15°41′</text>
<circle class="planet-outer" cx="433.9" cy="761.4" r="8" fill="#4ECDC4"/>
<text class="planet-glyph" x="433.9" y="762.4" style="font-size:12px">☿</text>
<text class="planet-degree" x="432.6" y="776.3">25°36′℞</text>
<circle class="planet-outer" cx="376.9" cy="759.2" r="8" fill="#FF6B9D"/>
<text class="planet-glyph" x="376.9" y="760.2" style="font-size:12px">♀</text>
<text class="planet-degree" x="372.9" y="773.6">6°12′℞</text>
<circle class="planet-outer" cx="322.9" cy="738.6" r="8" fill="#546E7A"/>
<text class="planet-glyph" x="322.9" y="739.6" style="font-size:12px">☊</text>
<text class="planet-degree" x="316.2" y="752.0">16°52′</text>
<circle class="planet-outer" cx="238.9" cy="678.0" r="8" fill="#C0C5CE"/>
<text class="planet-glyph" x="238.9" y="679.0" style="font-size:12px">☽</text>
<text class="planet-degree" x="228.2" y="688.5">6°05′</text>
<g opacity="0.6">
<line class="aspect" stroke="#FFD700" stroke-width="2" opacity="0.9" x1="506.8" y1="735.5" x2="513.3" y2="774.0"/>
<line class="aspect" stroke="#FFD700" stroke-width="2" opacity="0.9" x1="266.7" y1="650.5" x2="238.9" y2="678.0"/>
<line class="aspect" stroke="#FFD700" stroke-width="2" opacity="0.9" x1="437.3" y1="722.4" x2="433.9" y2="761.4"/>
<line class="aspect" stroke="#FFD700" stroke-width="2" opacity="0.9" x1="387.3" y1="721.5" x2="376.9" y2="759.2"/>
<line class="aspect" stroke="#FFD700" stroke-width="2" opacity="0.9" x1="636.3" y1="666.3" x2="661.7" y2="696.0"/>
<line class="aspect" stroke="#FFD700" stroke-width="2" opacity="0.9" x1="387.3" y1="198.5" x2="376.8" y2="160.9"/>
<line class="aspect" stroke="#FFD700" stroke-width="2" opacity="0.9" x1="485.7" y1="754.3" x2="489.1" y2="793.2"/>
<line class="aspect" stroke="#FFD700" stroke-width="2" opacity="0.9" x1="529.6" y1="722.3" x2="539.7" y2="760.1"/>
<line class="aspect" stroke="#FFD700" stroke-width="2" opacity="0.9" x1="498.3" y1="712.5" x2="504.1" y2="751.2"/>
<line class="aspect" stroke="#FFD700" stroke-width="2" opacity="0.9" x1="703.0" y1="580.8" x2="738.0" y2="598.2"/>
<line class="aspect" stroke="#FFD700" stroke-width="2" opacity="0.9" x1="340.1" y1="703.5" x2="322.9" y2="738.6"/>
<line class="aspect" stroke="#FFD700" stroke-width="2" opacity="0.9" x1="506.8" y1="735.5" x2="504.1" y2="751.2"/>
<line class="aspect" stroke="#FFD700" stroke-width="2" opacity="0.9" x1="498.3" y1="712.5" x2="513.3" y2="774.0"/>
<line class="aspect" stroke="#FFD700" stroke-width="2" opacity="0.9" x1="485.7" y1="754.3" x2="504.1" y2="751.2"/>
<line class="aspect" stroke="#FFD700" stroke-width="2" opacity="0.9" x1="498.3" y1="712.5" x2="489.1" y2="793.2"/>
<line class="aspect" stroke="#FFD700" stroke-width="2" opacity="0.9" x1="506.8" y1="735.5" x2="489.1" y2="793.2"/>
<line class="aspect" stroke="#FFD700" stroke-width="2" opacity="0.9" x1="485.7" y1="754.3" x2="513.3" y2="774.0"/>
<line class="aspect" stroke="#FFD700" stroke-width="2" opacity="0.9" x1="506.8" y1="735.5" x2="539.7" y2="760.1"/>
<line class="aspect" stroke="#FFD700" stroke-width="2" opacity="0.9" x1="529.6" y1="722.3" x2="513.3" y2="774.0"/>
<line class="aspect" stroke="#FFD700" stroke-width="2" opacity="0.9" x1="529.6" y1="722.3" x2="504.1" y2="751.2"/>
<line class="aspect" stroke="#FFD700" stroke-width="2" opacity="0.9" x1="498.3" y1="712.5" x2="539.7" y2="760.1"/>
<line class="aspect" stroke="#FF4444" stroke-width="2" opacity="0.85" x1="387.3" y1="198.5" x2="539.7" y2="760.1"/>
<line class="aspect" stroke="#FF4444" stroke-width="2" opacity="0.85" x1="529.6" y1="722.3" x2="376.8" y2="160.9"/>
<line class="aspect" stroke="#FF4444" stroke-width="2" opacity="0.85" x1="506.8" y1="735.5" x2="376.8" y2="160.9"/>
<line class="aspect" stroke="#FF4444" stroke-width="2" opacity="0.85" x1="387.3" y1="198.5" x2="513.3" y2="774.0"/>
<line class="aspect" stroke="#FF4444" stroke-width="2" opacity="0.85" x1="387.3" y1="198.5" x2="504.1" y2="751.2"/>
<line class="aspect" stroke="#FF4444" stroke-width="2" opacity="0.85" x1="498.3" y1="712.5" x2="376.8" y2="160.9"/>
<line class="aspect" stroke="#FF4444" stroke-width="2" opacity="0.85" x1="703.0" y1="580.8" x2="322.9" y2="738.6"/>
<line class="aspect" stroke="#FF4444" stroke-width="2" opacity="0.85" x1="340.1" y1="703.5" x2="738.0" y2="598.2"/>
<line class="aspect" stroke="#FF4444" stroke-width="2" opacity="0.85" x1="266.7" y1="650.5" x2="661.7" y2="696.0"/>
<line class="aspect" stroke="#FF4444" stroke-width="2" opacity="0.85" x1="636.3" y1="666.3" x2="238.9" y2="678.0"/>
<line class="aspect" stroke="#4CAF50" stroke-width="2" opacity="0.85" x1="266.7" y1="650.5" x2="376.8" y2="160.9"/>
<line class="aspect" stroke="#4CAF50" stroke-width="2" opacity="0.85" x1="387.3" y1="198.5" x2="238.9" y2="678.0"/>
<line class="aspect" stroke="#00BCD4" stroke-width="1.5" opacity="0.8" x1="266.7" y1="650.5" x2="539.7" y2="760.1"/>
<line class="aspect" stroke="#00BCD4" stroke-width="1.5" opacity="0.8" x1="529.6" y1="722.3" x2="238.9" y2="678.0"/>
<line class="aspect" stroke="#00BCD4" stroke-width="1.5" opacity="0.8" x1="485.7" y1="754.3" x2="738.0" y2="598.2"/>
<line class="aspect" stroke="#00BCD4" stroke-width="1.5" opacity="0.8" x1="703.0" y1="580.8" x2="489.1" y2="793.2"/>
<line class="aspect" stroke="#00BCD4" stroke-width="1.5" opacity="0.8" x1="387.3" y1="721.5" x2="661.7" y2="696.0"/>
<line class="aspect" stroke="#00BCD4" stroke-width="1.5" opacity="0.8" x1="636.3" y1="666.3" x2="376.9" y2="759.2"/>
<line class="aspect" stroke="#607D8B" stroke-width="1.5" opacity="0.6" stroke-dasharray="3,3" x1="266.7" y1="650.5" x2="376.9" y2="759.2"/>
<line class="aspect" stroke="#607D8B" stroke-width="1.5" opacity="0.6" stroke-dasharray="3,3" x1="387.3" y1="721.5" x2="238.9" y2="678.0"/>
<line class="aspect" stroke="#607D8B" stroke-width="1.5" opacity="0.6" stroke-dasharray="3,3" x1="506.8" y1="735.5" x2="322.9" y2="738.6"/>
<line class="aspect" stroke="#607D8B" stroke-width="1.5" opacity="0.6" stroke-dasharray="3,3" x1="340.1" y1="703.5" x2="513.3" y2="774.0"/>
<line class="aspect" stroke="#607D8B" stroke-width="1.5" opacity="0.6" stroke-dasharray="3,3" x1="387.3" y1="721.5" x2="539.7" y2="760.1"/>
<line class="aspect" stroke="#607D8B" stroke-width="1.5" opacity="0.6" stroke-dasharray="3,3" x1="529.6" y1="722.3" x2="376.9" y2="759.2"/>
<line class="aspect" stroke="#FF9800" stroke-width="1.5" opacity="0.65" stroke-dasharray="5,5" x1="437.3" y1="722.4" x2="661.7" y2="696.0"/>
<line class="aspect" stroke="#FF9800" stroke-width="1.5" opacity="0.65" stroke-dasharray="5,5" x1="636.3" y1="666.3" x2="433.9" y2="761.4"/>
<line class="aspect" stroke="#607D8B" stroke-width="1.5" opacity="0.6" stroke-dasharray="3,3" x1="636.3" y1="666.3" x2="489.1" y2="793.2"/>
<line class="aspect" stroke="#607D8B" stroke-width="1.5" opacity="0.6" stroke-dasharray="3,3" x1="485.7" y1="754.3" x2="661.7" y2="696.0"/>
<line class="aspect" stroke="#607D8B" stroke-width="1.5" opacity="0.6" stroke-dasharray="3,3" x1="506.8" y1="735.5" x2="661.7" y2="696.0"/>
<line class="aspect" stroke="#607D8B" stroke-width="1.5" opacity="0.6" stroke-dasharray="3,3" x1="636.3" y1="666.3" x2="513.3" y2="774.0"/>
<line class="aspect" stroke="#607D8B" stroke-width="1.5" opacity="0.6" stroke-dasharray="3,3" x1="266.7" y1="650.5" x2="738.0" y2="598.2"/>
<line class="aspect" stroke="#607D8B" stroke-width="1.5" opacity="0.6" stroke-dasharray="3,3" x1="703.0" y1="580.8" x2="238.9" y2="678.0"/>
<line class="aspect" stroke="#9C27B0" stroke-width="1.5" opacity="0.7" stroke-dasharray="5,5" x1="387.3" y1="721.5" x2="376.8" y2="160.9"/>
<line class="aspect" stroke="#9C27B0" stroke-width="1.5" opacity="0.7" stroke-dasharray="5,5" x1="387.3" y1="198.5" x2="376.9" y2="759.2"/>
<line class="aspect" stroke="#607D8B" stroke-width="1.5" opacity="0.6" stroke-dasharray="3,3" x1="498.3" y1="712.5" x2="322.9" y2="738.6"/>
<line class="aspect" stroke="#607D8B" stroke-width="1.5" opacity="0.6" stroke-dasharray="3,3" x1="340.1" y1="703.5" x2="504.1" y2="751.2"/>
<line class="aspect" stroke="#607D8B" stroke-width="1.5" opacity="0.6" stroke-dasharray="3,3" x1="485.7" y1="754.3" x2="322.9" y2="738.6"/>
<line class="aspect" stroke="#607D8B" stroke-width="1.5" opacity="0.6" stroke-dasharray="3,3" x1="340.1" y1="703.5" x2="489.1" y2="793.2"/>
<line class="aspect" stroke="#607D8B" stroke-width="1.5" opacity="0.6" stroke-dasharray="3,3" x1="636.3" y1="666.3" x2="504.1" y2="751.2"/>
<line class="aspect" stroke="#607D8B" stroke-width="1.5" opacity="0.6" stroke-dasharray="3,3" x1="498.3" y1="712.5" x2="661.7" y2="696.0"/>
</g>
</svg>